<?xml version="1.0" encoding="utf-8"?>
<!-- Generator: Adobe Illustrator 16.0.0, SVG Export Plug-In . SVG Version: 6.00 Build 0)  -->
<!DOCTYPE svg PUBLIC "-//W3C//DTD SVG 1.1//EN" "http://www.w3.org/Graphics/SVG/1.1/DTD/svg11.dtd">
<svg version="1.1" id="Layer_1" xmlns="http://www.w3.org/2000/svg" xmlns:xlink="http://www.w3.org/1999/xlink" x="0px" y="0px"
	 width="211px" height="51px" viewBox="0 0 211 51" enable-background="new 0 0 211 51" xml:space="preserve">
<g>
	<defs>
		<circle id="SVGID_1_" cx="26.049" cy="25.072" r="24.615"/>
	</defs>
	<use xlink:href="#SVGID_1_"  overflow="visible" fill-rule="evenodd" clip-rule="evenodd" fill="#01AAAA"/>
	<clipPath id="SVGID_2_">
		<use xlink:href="#SVGID_1_"  overflow="visible"/>
	</clipPath>
	<g clip-path="url(#SVGID_2_)">
		<defs>
			<rect id="SVGID_3_" x="1.435" y="0.458" width="49.608" height="49.608"/>
		</defs>
		<clipPath id="SVGID_4_">
			<use xlink:href="#SVGID_3_"  overflow="visible"/>
		</clipPath>
		<g clip-path="url(#SVGID_4_)" enable-background="new    ">
			<g>
				<defs>
					<rect id="SVGID_5_" x="0.958" y="0.458" width="50.085" height="50.085"/>
				</defs>
				<clipPath id="SVGID_6_">
					<use xlink:href="#SVGID_5_"  overflow="visible"/>
				</clipPath>
				<g clip-path="url(#SVGID_6_)">
					<defs>
						<rect id="SVGID_7_" x="0.958" y="0.458" width="50.085" height="50.085"/>
					</defs>
					<clipPath id="SVGID_8_">
						<use xlink:href="#SVGID_7_"  overflow="visible"/>
					</clipPath>
				</g>
				<g clip-path="url(#SVGID_6_)">
					<g>
						<defs>
							<rect id="SVGID_9_" x="0.958" y="0.458" width="50.085" height="50.085"/>
						</defs>
						<clipPath id="SVGID_10_">
							<use xlink:href="#SVGID_9_"  overflow="visible"/>
						</clipPath>
					</g>
				</g>
				<g clip-path="url(#SVGID_6_)">
					<defs>
						<path id="SVGID_11_" d="M27.903,16.156c-0.087,0.544,0.24,0.468,0.519,0.406c1-0.221,2.017-0.374,2.954-0.854
							c0.515-0.262,1.196-0.458,0.96-1.27c-0.205-0.705-0.738-1.149-1.349-1.206C30.019,13.22,28.063,15.16,27.903,16.156z
							 M17.829,14.41c-0.232,0.75,0.309,0.99,0.787,1.296c0.969,0.621,2.078,0.655,3.141,0.879c0.327,0.069,0.585-0.027,0.495-0.502
							c-0.164-0.862-2.178-2.832-2.938-2.848C18.52,13.206,18.059,13.665,17.829,14.41z M28.268,18.736l-1.029,0.044
							c-3.803,0.089-6.066-0.225-6.066-0.225c-0.967-0.204-1.927-0.498-2.873-0.852c-2.013-0.756-2.875-2.011-2.609-3.686
							c0.272-1.721,2.048-3.15,3.835-3.382c1.849-0.24,2.933,0.783,3.948,2.008c0.596,0.72,1.11,1.508,1.646,2.277
							c0.356,0.511,0.671,0.503,1.023-0.002c0.587-0.842,1.127-1.727,1.799-2.495c1.104-1.263,2.489-2.131,4.232-1.804
							c1.634,0.307,2.8,1.297,3.334,2.951c0.434,1.344,0.133,2.459-0.979,3.331c-0.974,0.764-2.031,1.185-3.221,1.408
							C30.208,18.519,29.394,18.635,28.268,18.736z M38.367,33.779c-0.128,0.936-0.353,1.77-0.496,2.238
							c-0.694,2.27-2.056,3.344-4.94,3.943c-5.116,1.063-10.227,0.789-15.303-0.209c-2.521-0.5-4.096-2.168-4.536-4.717
							c-0.535-3.098-0.62-6.215-0.033-9.332c0.477-2.529,2.031-4.004,4.423-4.688c0.771-0.221,1.567-0.373,2.362-0.497
							c0.789-0.124,1.616-0.1,1.814,0.889c0.18,0.898-0.508,1.246-1.231,1.472c-0.598,0.187-1.201,0.353-1.803,0.526
							c-1.354,0.392-2.229,1.266-2.623,2.619c-0.765,2.633-0.751,5.299-0.231,7.963c0.289,1.48,1.186,2.484,2.657,2.91
							c1.551,0.451,3.857,0.834,5.479,0.873c2.852,0.068,4.814,0.074,7.571-0.424c2.982-0.541,4.284-1.992,4.297-5.021
							c0.009-1.873,0.105-3.746-0.226-5.617c-0.304-1.72-1.236-2.841-2.82-3.448c-1.311-0.503-2.715-0.496-4.088-0.637
							c-0.873-0.09-1.184,0.408-1.178,1.227c0.012,2.103-0.006,4.204,0,6.307c0.002,0.99-0.19,1.826-1.424,1.82
							c-1.243-0.004-1.251-0.924-1.254-1.797c-0.01-2.729-0.026-5.458,0.011-8.185c0.02-1.412,0.615-2.093,1.927-2.038
							c2.52,0.104,5.029,0.279,7.416,0.975c0,0,3.105,0.817,3.943,3.904c0,0,0.688,3.288,0.521,5.872c0,0,0.01,0.277-0.02,0.586
							C38.582,31.295,38.531,32.578,38.367,33.779z"/>
					</defs>
					<clipPath id="SVGID_12_">
						<use xlink:href="#SVGID_11_"  overflow="visible"/>
					</clipPath>
					<g clip-path="url(#SVGID_12_)">
						<defs>
							<rect id="SVGID_13_" x="5.91" y="4.933" width="40.279" height="40.28"/>
						</defs>
						<clipPath id="SVGID_14_">
							<use xlink:href="#SVGID_13_"  overflow="visible"/>
						</clipPath>
						<g clip-path="url(#SVGID_14_)" enable-background="new    ">
							<g>
								<defs>
									<rect id="SVGID_15_" x="11.761" y="10.278" width="27.498" height="31.425"/>
								</defs>
								<clipPath id="SVGID_16_">
									<use xlink:href="#SVGID_15_"  overflow="visible"/>
								</clipPath>
								<g clip-path="url(#SVGID_16_)">
									<defs>
										<rect id="SVGID_17_" x="11.761" y="10.278" width="27.498" height="31.425"/>
									</defs>
									<clipPath id="SVGID_18_">
										<use xlink:href="#SVGID_17_"  overflow="visible"/>
									</clipPath>
									<rect x="7.743" y="5.642" clip-path="url(#SVGID_18_)" fill="#FFFFFF" width="35.795" height="39.909"/>
								</g>
								<g clip-path="url(#SVGID_16_)">
									<g>
										<defs>
											<rect id="SVGID_19_" x="11.761" y="10.278" width="27.498" height="31.425"/>
										</defs>
										<clipPath id="SVGID_20_">
											<use xlink:href="#SVGID_19_"  overflow="visible"/>
										</clipPath>
									</g>
								</g>
							</g>
						</g>
					</g>
				</g>
			</g>
		</g>
	</g>
</g>
<g>
	<g>
		<path fill="#3F4247" d="M85.193,16.371l-5.577,16.684h-2.503l-4.552-13.323l-4.552,13.323h-2.55l-5.577-16.684h2.455l4.504,13.562
			l4.695-13.562h2.193l4.6,13.633l4.6-13.633H85.193z"/>
		<path fill="#3F4247" d="M99.615,33.055l-3.599-5.124c-0.334,0.023-0.691,0.047-1.049,0.047h-4.123v5.077H88.46V16.371h6.507
			c4.338,0,6.959,2.192,6.959,5.815c0,2.574-1.334,4.433-3.67,5.268l3.957,5.601H99.615z M99.543,22.187
			c0-2.384-1.597-3.742-4.647-3.742h-4.052v7.508h4.052C97.947,25.952,99.543,24.57,99.543,22.187z"/>
		<path fill="#3F4247" d="M116.419,28.884h-8.866l-1.835,4.171h-2.454l7.554-16.684h2.36l7.579,16.684h-2.503L116.419,28.884z
			 M115.585,26.977l-3.6-8.175l-3.599,8.175H115.585z"/>
		<path fill="#3F4247" d="M136.703,22.187c0,3.623-2.621,5.815-6.959,5.815h-4.124v5.053h-2.383V16.371h6.507
			C134.082,16.371,136.703,18.563,136.703,22.187z M134.32,22.187c0-2.384-1.598-3.742-4.648-3.742h-4.052v7.484h4.052
			C132.723,25.929,134.32,24.57,134.32,22.187z"/>
		<path fill="#3F4247" d="M140.447,16.371h2.383v16.684h-2.383V16.371z"/>
		<path fill="#3F4247" d="M146.311,31.147l0.882-1.858c1.239,1.12,3.36,1.931,5.506,1.931c2.884,0,4.123-1.12,4.123-2.574
			c0-4.075-10.105-1.502-10.105-7.698c0-2.574,2.002-4.767,6.387-4.767c1.955,0,3.98,0.524,5.363,1.478l-0.787,1.906
			c-1.453-0.93-3.098-1.358-4.576-1.358c-2.836,0-4.052,1.191-4.052,2.646c0,4.076,10.106,1.525,10.106,7.65
			c0,2.551-2.05,4.743-6.459,4.743C150.147,33.245,147.645,32.388,146.311,31.147z"/>
		<path fill="#3F4247" d="M165.951,18.444h-5.72v-2.073h13.8v2.073h-5.721v14.61h-2.359V18.444z"/>
		<path fill="#3F4247" d="M187.784,33.055l-3.6-5.124c-0.333,0.023-0.69,0.047-1.048,0.047h-4.124v5.077h-2.383V16.371h6.507
			c4.338,0,6.959,2.192,6.959,5.815c0,2.574-1.335,4.433-3.67,5.268l3.956,5.601H187.784z M187.713,22.187
			c0-2.384-1.598-3.742-4.648-3.742h-4.052v7.508h4.052C186.115,25.952,187.713,24.57,187.713,22.187z"/>
		<path fill="#3F4247" d="M200.347,27.287v5.768h-2.36v-5.815l-6.626-10.868h2.551l5.339,8.795l5.362-8.795h2.359L200.347,27.287z"
			/>
	</g>
</g>
</svg>
